<?xml version="1.0" encoding="UTF-8" standalone="no" ?>
<!DOCTYPE svg PUBLIC "-//W3C//DTD SVG 1.1//EN" "http://www.w3.org/Graphics/SVG/1.1/DTD/svg11.dtd">
<svg xmlns="http://www.w3.org/2000/svg" xmlns:xlink="http://www.w3.org/1999/xlink" version="1.1" width="500" height="500" viewBox="0 0 500 500" xml:space="preserve">
<desc>Created with Fabric.js 4.6.0</desc>
<defs>
</defs>
<g transform="matrix(1.89 0 0 2.43 250 242.28)" id="cUlAnNYw5HstF9bCXUqNg"  >
<path style="stroke: rgb(75,75,122); stroke-width: 0; stroke-dasharray: none; stroke-linecap: butt; stroke-dashoffset: 0; stroke-linejoin: miter; stroke-miterlimit: 4; fill: rgb(255,243,18); fill-rule: nonzero; opacity: 1;" vector-effect="non-scaling-stroke"  transform=" translate(0, 0)" d="M 0 -56.70926 C 31.30351 -56.70926 56.70926 -31.30351 56.70926 0 C 56.70926 31.30351 31.30351 56.70926 0 56.70926 C -31.30351 56.70926 -56.70926 31.30351 -56.70926 0 C -56.70926 -31.30351 -31.30351 -56.70926 0 -56.70926 z" stroke-linecap="round" />
</g>
<g transform="matrix(1.82 0 0 2.34 250 242.28)" id="KmngaWZACPXpb_H6DTJdX"  >
<path style="stroke: rgb(75,75,122); stroke-width: 0; stroke-dasharray: none; stroke-linecap: butt; stroke-dashoffset: 0; stroke-linejoin: miter; stroke-miterlimit: 4; fill: rgb(0,0,0); fill-rule: nonzero; opacity: 1;" vector-effect="non-scaling-stroke"  transform=" translate(0, 0)" d="M 0 -56.70926 C 31.30351 -56.70926 56.70926 -31.30351 56.70926 0 C 56.70926 31.30351 31.30351 56.70926 0 56.70926 C -31.30351 56.70926 -56.70926 31.30351 -56.70926 0 C -56.70926 -31.30351 -31.30351 -56.70926 0 -56.70926 z" stroke-linecap="round" />
</g>
<g transform="matrix(1.41 0 0 1.04 246.69 94.4)" id="e8-UyhdWH8hgY1HGfDbun"  >
<path style="stroke: rgb(54,80,169); stroke-width: 0; stroke-dasharray: none; stroke-linecap: butt; stroke-dashoffset: 0; stroke-linejoin: miter; stroke-miterlimit: 4; fill: rgb(255,242,0); fill-rule: nonzero; opacity: 1;" vector-effect="non-scaling-stroke"  transform=" translate(0, 0)" d="M 0 -85.7295 C 47.32268 -85.7295 85.7295 -47.32268 85.7295 0 C 85.7295 47.32268 47.32268 85.7295 0 85.7295 C -47.32268 85.7295 -85.7295 47.32268 -85.7295 0 C -85.7295 -47.32268 -47.32268 -85.7295 0 -85.7295 z" stroke-linecap="round" />
</g>
<g transform="matrix(1.36 0 0 1 246.69 94.4)" id="JKIFamnJnw1N7U4s1UZcH"  >
<path style="stroke: rgb(54,80,169); stroke-width: 0; stroke-dasharray: none; stroke-linecap: butt; stroke-dashoffset: 0; stroke-linejoin: miter; stroke-miterlimit: 4; fill: rgb(0,0,0); fill-rule: nonzero; opacity: 1;" vector-effect="non-scaling-stroke"  transform=" translate(0, 0)" d="M 0 -85.7295 C 47.32268 -85.7295 85.7295 -47.32268 85.7295 0 C 85.7295 47.32268 47.32268 85.7295 0 85.7295 C -47.32268 85.7295 -85.7295 47.32268 -85.7295 0 C -85.7295 -47.32268 -47.32268 -85.7295 0 -85.7295 z" stroke-linecap="round" />
</g>
<g transform="matrix(0.68 0 0 1 205.7 113.15)" id="-pqt-Bl2G1Os4EcbvsA96"  >
<path style="stroke: rgb(75,75,122); stroke-width: 0; stroke-dasharray: none; stroke-linecap: butt; stroke-dashoffset: 0; stroke-linejoin: miter; stroke-miterlimit: 4; fill: rgb(255,255,255); fill-rule: nonzero; opacity: 1;" vector-effect="non-scaling-stroke"  transform=" translate(0, 0)" d="M 0 -30.61768 C 16.90096 -30.61768 30.61768 -16.900959999999998 30.61768 0 C 30.61768 16.90096 16.900959999999998 30.61768 0 30.61768 C -16.90096 30.61768 -30.61768 16.900959999999998 -30.61768 0 C -30.61768 -16.90096 -16.900959999999998 -30.61768 0 -30.61768 z" stroke-linecap="round" />
</g>
<g transform="matrix(0.54 0 0 0.34 205.7 113.15)" id="QzA6iYnXH1tXgpvSlAE7s"  >
<g style="" vector-effect="non-scaling-stroke"   >
		<g transform="matrix(1 0 0 1 0 0)" id="8pGwhxWBhUk3rFh1qbXXl"  >
<path style="stroke: none; stroke-width: 1; stroke-dasharray: none; stroke-linecap: butt; stroke-dashoffset: 0; stroke-linejoin: miter; stroke-miterlimit: 4; fill: rgb(179,181,179); fill-rule: nonzero; opacity: 1;" vector-effect="non-scaling-stroke"  transform=" translate(-40, -40)" d="M 40 0 C 17.9 0 0 17.9 0 40 C 0 62.1 17.9 80 40 80 C 62.1 80 80 62.1 80 40 C 80 17.9 62.1 0 40 0 z" stroke-linecap="round" />
</g>
		<g transform="matrix(1 0 0 1 0 -0.04)" id="vhpXVQ3flrvQE7BRFV5Bn"  >
<path style="stroke: none; stroke-width: 1; stroke-dasharray: none; stroke-linecap: butt; stroke-dashoffset: 0; stroke-linejoin: miter; stroke-miterlimit: 4; fill: rgb(255,255,255); fill-rule: nonzero; opacity: 1;" vector-effect="non-scaling-stroke"  transform=" translate(-40, -39.96)" d="M 59.2 28.2 L 47.4 40 L 59.2 51.8 C 61.300000000000004 53.9 61.300000000000004 57.199999999999996 59.2 59.199999999999996 C 58.2 60.199999999999996 56.800000000000004 60.699999999999996 55.5 60.699999999999996 C 54.199999999999996 60.699999999999996 52.8 60.199999999999996 51.8 59.199999999999996 L 40 47.4 L 28.2 59.2 C 27.2 60.2 25.8 60.7 24.5 60.7 C 23.2 60.7 21.8 60.2 20.8 59.2 C 18.7 57.1 18.7 53.800000000000004 20.8 51.800000000000004 L 32.6 40 L 20.8 28.2 C 18.7 26.099999999999998 18.7 22.799999999999997 20.8 20.799999999999997 C 22.900000000000002 18.799999999999997 26.200000000000003 18.699999999999996 28.200000000000003 20.799999999999997 L 40 32.6 L 51.8 20.8 C 53.9 18.7 57.199999999999996 18.7 59.199999999999996 20.8 C 61.199999999999996 22.900000000000002 61.3 26.2 59.2 28.2 z" stroke-linecap="round" />
</g>
</g>
</g>
<g transform="matrix(-0.5 0.5 -0.5 -0.5 205.7 113.15)" id="EQKmVRGM2sxAuLm5jFNXj"  >
<path style="stroke: none; stroke-width: 1; stroke-dasharray: none; stroke-linecap: butt; stroke-dashoffset: 0; stroke-linejoin: miter; stroke-miterlimit: 4; fill: rgb(0,0,0); fill-rule: nonzero; opacity: 1;" vector-effect="non-scaling-stroke"  transform=" translate(-40, -40)" d="M 0 0 L 80 80 L 0 80 L 0 0 z" stroke-linecap="round" />
</g>
<g transform="matrix(-1.02 0 0 -0.56 290.35 119.44)" id="fHm0IFS7zIkMOXVoK2T8k"  >
<path style="stroke: rgb(75,75,122); stroke-width: 0; stroke-dasharray: none; stroke-linecap: butt; stroke-dashoffset: 0; stroke-linejoin: miter; stroke-miterlimit: 4; fill: rgb(203,205,203); fill-rule: nonzero; opacity: 1;" vector-effect="non-scaling-stroke"  transform=" translate(0, 0)" d="M 0 -38.6049 C 21.3099 -38.6049 38.6049 -21.309910000000002 38.6049 0 C 38.6049 21.3099 21.309910000000002 38.6049 0 38.6049 C -21.3099 38.6049 -38.6049 21.309910000000002 -38.6049 0 C -38.6049 -21.3099 -21.309910000000002 -38.6049 0 -38.6049 z" stroke-linecap="round" />
</g>
<g transform="matrix(-1.69 0 0 -0.82 290.35 107.56)" id="RPkX9Rds2hZpoDFnl8LYN"  >
<path style="stroke: rgb(75,75,122); stroke-width: 0; stroke-dasharray: none; stroke-linecap: butt; stroke-dashoffset: 0; stroke-linejoin: miter; stroke-miterlimit: 4; fill: rgb(0,0,0); fill-rule: nonzero; opacity: 1;" vector-effect="non-scaling-stroke"  transform=" translate(0, 0)" d="M 0 -30.35143 C 16.75399 -30.35143 30.35143 -16.75399 30.35143 0 C 30.35143 16.75399 16.75399 30.35143 0 30.35143 C -16.75399 30.35143 -30.35143 16.75399 -30.35143 0 C -30.35143 -16.75399 -16.75399 -30.35143 0 -30.35143 z" stroke-linecap="round" />
</g>
</svg>